<mxfile host="app.diagrams.net" modified="2023-11-01T07:39:29.212Z" agent="Mozilla/5.0 (Macintosh; Intel Mac OS X 10_15_7) AppleWebKit/537.36 (KHTML, like Gecko) Chrome/118.0.0.0 Safari/537.36 Edg/118.0.2088.76" etag="JalA8xbBgTc69z5UmDsR" version="21.3.8" type="github">
  <diagram name="第 1 页" id="aBAtC7C85wRrQgK5SBA-">
    <mxGraphModel dx="789" dy="508" grid="1" gridSize="10" guides="1" tooltips="1" connect="1" arrows="1" fold="1" page="1" pageScale="1" pageWidth="827" pageHeight="1169" math="0" shadow="0">
      <root>
        <mxCell id="0" />
        <mxCell id="1" parent="0" />
        <mxCell id="pVMCiTDg7z46em1MxIxY-14" value="" style="rounded=1;whiteSpace=wrap;html=1;fillStyle=auto;dashed=1;glass=0;perimeterSpacing=0;gradientColor=none;resizeHeight=0;" vertex="1" parent="1">
          <mxGeometry x="370" y="80" width="150" height="140" as="geometry" />
        </mxCell>
        <mxCell id="pVMCiTDg7z46em1MxIxY-1" value="" style="ellipse;whiteSpace=wrap;html=1;aspect=fixed;" vertex="1" parent="1">
          <mxGeometry x="50" y="50" width="80" height="80" as="geometry" />
        </mxCell>
        <mxCell id="pVMCiTDg7z46em1MxIxY-2" value="" style="rounded=1;whiteSpace=wrap;html=1;" vertex="1" parent="1">
          <mxGeometry x="377" y="86" width="60" height="60" as="geometry" />
        </mxCell>
        <mxCell id="pVMCiTDg7z46em1MxIxY-4" value="" style="verticalLabelPosition=bottom;verticalAlign=top;html=1;shape=mxgraph.flowchart.or;" vertex="1" parent="1">
          <mxGeometry x="560" y="230" width="40" height="40" as="geometry" />
        </mxCell>
        <mxCell id="pVMCiTDg7z46em1MxIxY-6" value="" style="strokeWidth=2;html=1;shape=mxgraph.flowchart.document2;whiteSpace=wrap;size=0.25;" vertex="1" parent="1">
          <mxGeometry x="40" y="200" width="100" height="60" as="geometry" />
        </mxCell>
        <mxCell id="pVMCiTDg7z46em1MxIxY-7" value="" style="strokeWidth=2;html=1;shape=mxgraph.flowchart.document2;whiteSpace=wrap;size=0.25;" vertex="1" parent="1">
          <mxGeometry x="50" y="210" width="100" height="60" as="geometry" />
        </mxCell>
        <mxCell id="pVMCiTDg7z46em1MxIxY-10" value="" style="edgeStyle=orthogonalEdgeStyle;rounded=0;orthogonalLoop=1;jettySize=auto;html=1;" edge="1" parent="1" source="pVMCiTDg7z46em1MxIxY-8">
          <mxGeometry relative="1" as="geometry">
            <mxPoint x="210" y="250" as="targetPoint" />
          </mxGeometry>
        </mxCell>
        <mxCell id="pVMCiTDg7z46em1MxIxY-8" value="" style="strokeWidth=2;html=1;shape=mxgraph.flowchart.document2;whiteSpace=wrap;size=0.25;" vertex="1" parent="1">
          <mxGeometry x="60" y="220" width="100" height="60" as="geometry" />
        </mxCell>
        <mxCell id="pVMCiTDg7z46em1MxIxY-9" value="S1: [x&lt;sub&gt;1&lt;/sub&gt;] [x&lt;sub&gt;2&lt;/sub&gt;] [x&lt;sub&gt;3&lt;/sub&gt;]" style="rounded=1;whiteSpace=wrap;html=1;strokeWidth=2;fillColor=#f5f5f5;fontColor=#333333;strokeColor=#666666;" vertex="1" parent="1">
          <mxGeometry x="216" y="216" width="120" height="20" as="geometry" />
        </mxCell>
        <mxCell id="pVMCiTDg7z46em1MxIxY-11" value="S2: [y&lt;sub&gt;1&lt;/sub&gt;] [y&lt;sub&gt;2&lt;/sub&gt;] [y&lt;sub&gt;3&lt;/sub&gt;]" style="rounded=1;whiteSpace=wrap;html=1;strokeWidth=2;fillColor=#f5f5f5;fontColor=#333333;strokeColor=#666666;" vertex="1" parent="1">
          <mxGeometry x="216" y="240" width="120" height="20" as="geometry" />
        </mxCell>
        <mxCell id="pVMCiTDg7z46em1MxIxY-12" value="S3: [z&lt;sub&gt;1&lt;/sub&gt;] [z&lt;sub&gt;2&lt;/sub&gt;]&amp;nbsp;" style="rounded=1;whiteSpace=wrap;html=1;strokeWidth=2;fillColor=#f5f5f5;fontColor=#333333;strokeColor=#666666;" vertex="1" parent="1">
          <mxGeometry x="216" y="264" width="120" height="20" as="geometry" />
        </mxCell>
        <mxCell id="pVMCiTDg7z46em1MxIxY-26" value="" style="edgeStyle=none;orthogonalLoop=1;jettySize=auto;html=1;rounded=0;" edge="1" parent="1">
          <mxGeometry width="100" relative="1" as="geometry">
            <mxPoint x="530" y="330" as="sourcePoint" />
            <mxPoint x="560" y="290" as="targetPoint" />
            <Array as="points" />
          </mxGeometry>
        </mxCell>
        <mxCell id="pVMCiTDg7z46em1MxIxY-27" value="" style="edgeStyle=none;orthogonalLoop=1;jettySize=auto;html=1;rounded=0;" edge="1" parent="1">
          <mxGeometry width="100" relative="1" as="geometry">
            <mxPoint x="530" y="170" as="sourcePoint" />
            <mxPoint x="560" y="210" as="targetPoint" />
            <Array as="points" />
          </mxGeometry>
        </mxCell>
        <mxCell id="pVMCiTDg7z46em1MxIxY-28" value="" style="edgeStyle=none;orthogonalLoop=1;jettySize=auto;html=1;rounded=0;" edge="1" parent="1">
          <mxGeometry width="100" relative="1" as="geometry">
            <mxPoint x="330" y="210" as="sourcePoint" />
            <mxPoint x="360" y="170" as="targetPoint" />
            <Array as="points" />
          </mxGeometry>
        </mxCell>
        <mxCell id="pVMCiTDg7z46em1MxIxY-31" value="" style="edgeStyle=none;orthogonalLoop=1;jettySize=auto;html=1;rounded=0;" edge="1" parent="1">
          <mxGeometry width="100" relative="1" as="geometry">
            <mxPoint x="330" y="290" as="sourcePoint" />
            <mxPoint x="360" y="330" as="targetPoint" />
            <Array as="points" />
          </mxGeometry>
        </mxCell>
        <mxCell id="pVMCiTDg7z46em1MxIxY-33" value="" style="rounded=1;whiteSpace=wrap;html=1;" vertex="1" parent="1">
          <mxGeometry x="454" y="152" width="60" height="60" as="geometry" />
        </mxCell>
        <mxCell id="pVMCiTDg7z46em1MxIxY-37" value="" style="edgeStyle=none;orthogonalLoop=1;jettySize=auto;html=1;rounded=0;entryX=-0.024;entryY=0.115;entryDx=0;entryDy=0;entryPerimeter=0;" edge="1" parent="1" target="pVMCiTDg7z46em1MxIxY-33">
          <mxGeometry width="100" relative="1" as="geometry">
            <mxPoint x="437" y="146" as="sourcePoint" />
            <mxPoint x="467" y="186" as="targetPoint" />
            <Array as="points" />
          </mxGeometry>
        </mxCell>
        <mxCell id="pVMCiTDg7z46em1MxIxY-39" value="" style="rounded=1;whiteSpace=wrap;html=1;fillStyle=auto;dashed=1;glass=0;perimeterSpacing=0;gradientColor=none;resizeHeight=0;" vertex="1" parent="1">
          <mxGeometry x="370" y="280" width="150" height="140" as="geometry" />
        </mxCell>
        <mxCell id="pVMCiTDg7z46em1MxIxY-40" value="" style="rounded=1;whiteSpace=wrap;html=1;" vertex="1" parent="1">
          <mxGeometry x="377" y="286" width="60" height="60" as="geometry" />
        </mxCell>
        <mxCell id="pVMCiTDg7z46em1MxIxY-41" value="" style="rounded=1;whiteSpace=wrap;html=1;" vertex="1" parent="1">
          <mxGeometry x="454" y="352" width="60" height="60" as="geometry" />
        </mxCell>
        <mxCell id="pVMCiTDg7z46em1MxIxY-42" value="" style="edgeStyle=none;orthogonalLoop=1;jettySize=auto;html=1;rounded=0;entryX=-0.024;entryY=0.115;entryDx=0;entryDy=0;entryPerimeter=0;" edge="1" parent="1" target="pVMCiTDg7z46em1MxIxY-41">
          <mxGeometry width="100" relative="1" as="geometry">
            <mxPoint x="437" y="346" as="sourcePoint" />
            <mxPoint x="467" y="386" as="targetPoint" />
            <Array as="points" />
          </mxGeometry>
        </mxCell>
        <mxCell id="pVMCiTDg7z46em1MxIxY-43" value="Tw" style="text;html=1;align=center;verticalAlign=middle;resizable=0;points=[];autosize=1;strokeColor=none;fillColor=none;" vertex="1" parent="1">
          <mxGeometry x="370" y="228" width="40" height="30" as="geometry" />
        </mxCell>
      </root>
    </mxGraphModel>
  </diagram>
</mxfile>
